HIERARCHY
ROOT pelvis
{
	OFFSET 0.000000 0.000000 0.000000
	CHANNELS 6 Xposition Yposition Zposition Xrotation Yrotation Zrotation
	JOINT l_hip
	{
		OFFSET 0.195211 -0.245059 -0.022011
		CHANNELS 3 Xrotation Yrotation Zrotation
		JOINT l_knee
		{
			OFFSET 0.083896 -0.996307 -0.018298
			CHANNELS 3 Xrotation Yrotation Zrotation
			JOINT l_ankle
			{
				OFFSET -0.031606 -1.048662 -0.119000
				CHANNELS 3 Xrotation Yrotation Zrotation
				JOINT l_foot
				{
					OFFSET 0.063841 -0.149483 0.312863
					CHANNELS 3 Xrotation Yrotation Zrotation
					End Site
					{
						OFFSET 0.000000 0.000000 0.000000
					}
				}
			}
		}
	}
	JOINT r_hip
	{
		OFFSET -0.188785 -0.243354 -0.013119
		CHANNELS 3 Xrotation Yrotation Zrotation
		JOINT r_knee
		{
			OFFSET -0.098896 -1.013926 -0.025127
			CHANNELS 3 Xrotation Yrotation Zrotation
			JOINT r_ankle
			{
				OFFSET 0.038376 -1.049454 -0.114596
				CHANNELS 3 Xrotation Yrotation Zrotation
				JOINT r_foot
				{
					OFFSET -0.060300 -0.126955 0.322518
					CHANNELS 3 Xrotation Yrotation Zrotation
					End Site
					{
						OFFSET 0.000000 0.000000 0.000000
					}
				}
			}
		}
	}
	JOINT spine1
	{
		OFFSET -0.006861 0.282462 -0.060688
		CHANNELS 3 Xrotation Yrotation Zrotation
		JOINT spine2
		{
			OFFSET 0.009796 0.349212 -0.004686
			CHANNELS 3 Xrotation Yrotation Zrotation
			JOINT spine3
			{
				OFFSET 0.005545 0.134239 0.076232
				CHANNELS 3 Xrotation Yrotation Zrotation
				JOINT neck
				{
					OFFSET -0.005369 0.569656 -0.136135
					CHANNELS 3 Xrotation Yrotation Zrotation
					JOINT head
					{
						OFFSET 0.009621 0.170484 0.137338
						CHANNELS 3 Xrotation Yrotation Zrotation
						End Site
						{
							OFFSET 0.000000 0.000000 0.000000
						}
					}
				}
				JOINT l_collar
				{
					OFFSET 0.205981 0.322192 -0.100872
					CHANNELS 3 Xrotation Yrotation Zrotation
					JOINT l_shoulder
					{
						OFFSET 0.233388 0.086823 -0.019950
						CHANNELS 3 Xrotation Yrotation Zrotation
						JOINT l_elbow
						{
							OFFSET 0.687295 -0.032736 -0.075278
							CHANNELS 3 Xrotation Yrotation Zrotation
							JOINT l_wrist
							{
								OFFSET 0.651109 0.024639 0.000120
								CHANNELS 3 Xrotation Yrotation Zrotation
								JOINT l_hand
								{
									OFFSET 0.217934 -0.026487 -0.036124
									CHANNELS 3 Xrotation Yrotation Zrotation
									End Site
									{
										OFFSET 0.000000 0.000000 0.000000
									}
								}
							}
						}
					}
				}
				JOINT r_collar
				{
					OFFSET -0.210726 0.316244 -0.114374
					CHANNELS 3 Xrotation Yrotation Zrotation
					JOINT r_shoulder
					{
						OFFSET -0.244017 0.089684 -0.026814
						CHANNELS 3 Xrotation Yrotation Zrotation
						JOINT r_elbow
						{
							OFFSET -0.672913 -0.035979 -0.055153
							CHANNELS 3 Xrotation Yrotation Zrotation
							JOINT r_wrist
							{
								OFFSET -0.670689 0.023586 -0.009661
								CHANNELS 3 Xrotation Yrotation Zrotation
								JOINT r_hand
								{
									OFFSET -0.219937 -0.019827 -0.028502
									CHANNELS 3 Xrotation Yrotation Zrotation
									End Site
									{
										OFFSET 0.000000 0.000000 0.000000
									}
								}
							}
						}
					}
				}
			}
		}
	}
}
MOTION
Frames: 12
Frame Time: 0.016667
0.000000 0.000000 0.000000 0.000000 0.000000 0.000000 -11.114698 3.183381 1.089563 22.677402 -4.151248 -3.977868 0.000000 0.000000 0.000000 0.000000 0.000000 0.000000 -13.601042 2.497343 -4.738140 21.025396 11.382695 0.612391 0.000000 0.000000 0.000000 0.000000 0.000000 0.000000 18.176929 -1.742767 5.393837 14.023281 -11.864314 13.055637 -4.398137 -3.995971 6.570398 -1.034736 -4.036015 -8.603977 -2.178493 11.508490 9.610439 -0.628082 -33.140236 -25.697306 -18.221990 -29.015728 -44.123007 4.253089 -28.245811 6.613273 0.000000 0.000000 0.000000 0.000000 0.000000 0.000000 -4.013036 17.730269 25.495543 -0.719838 3.857392 35.358398 2.833686 43.970282 -5.697173 0.000000 0.000000 0.000000 0.000000 0.000000 0.000000 
0.000000 0.000000 0.000000 0.000000 0.000000 0.000000 -10.692475 2.867703 1.273868 21.660669 -4.074785 -3.768965 0.000000 0.000000 0.000000 0.000000 0.000000 0.000000 -12.954901 2.293921 -4.542843 19.977043 10.770687 0.704761 0.000000 0.000000 0.000000 0.000000 0.000000 0.000000 17.179273 -1.548643 5.234792 13.111314 -11.391649 11.975723 -4.535763 -3.561921 5.944695 -1.408896 -5.398994 -7.438121 -1.011562 11.413756 9.266344 -0.851511 -30.432703 -27.024752 -15.727536 -27.805565 -46.864717 5.924525 -32.051533 8.288990 0.000000 0.000000 0.000000 0.000000 0.000000 0.000000 -3.920014 16.888470 25.438059 -0.354803 5.837226 35.726321 6.075939 44.820882 -6.370452 0.000000 0.000000 0.000000 0.000000 0.000000 0.000000 
0.000000 0.000000 0.000000 0.000000 0.000000 0.000000 -10.355438 2.515620 1.468422 20.758570 -4.054559 -3.523427 0.000000 0.000000 0.000000 0.000000 0.000000 0.000000 -12.405941 2.098862 -4.281931 19.103324 10.169669 0.774728 0.000000 0.000000 0.000000 0.000000 0.000000 0.000000 16.327125 -1.359005 5.030307 12.090124 -10.882120 10.964128 -4.622231 -3.141436 5.375610 -1.775468 -6.797411 -6.315568 0.245207 11.044449 8.879023 -0.918256 -27.617959 -27.982771 -12.867909 -26.482243 -48.860051 7.820918 -35.570359 9.923263 0.000000 0.000000 0.000000 0.000000 0.000000 0.000000 -3.912854 16.157398 25.438082 -0.014739 7.910537 35.709615 9.330707 45.938837 -7.029980 0.000000 0.000000 0.000000 0.000000 0.000000 0.000000 
0.000000 0.000000 0.000000 0.000000 0.000000 0.000000 -9.855276 2.289420 1.670876 19.782733 -3.993516 -3.300500 0.000000 0.000000 0.000000 0.000000 0.000000 0.000000 -11.746646 1.868795 -4.046185 18.205738 9.676902 0.887191 0.000000 0.000000 0.000000 0.000000 0.000000 0.000000 15.376456 -1.104784 4.823210 11.368444 -10.265640 9.970520 -4.735508 -2.672442 4.786899 -1.892118 -7.915833 -5.294159 1.376123 10.543448 8.368087 -0.944203 -24.914582 -28.733956 -10.055115 -24.981108 -50.081232 9.182873 -38.333964 11.321972 0.000000 0.000000 0.000000 0.000000 0.000000 0.000000 -3.876523 15.738375 25.379941 0.189531 9.862615 35.281849 12.269726 47.213781 -7.574985 0.000000 0.000000 0.000000 0.000000 0.000000 0.000000 
0.000000 0.000000 0.000000 0.000000 0.000000 0.000000 -9.325265 2.092244 1.877430 18.859093 -4.022273 -3.081133 0.000000 0.000000 0.000000 0.000000 0.000000 0.000000 -11.048149 1.624888 -3.800725 17.402167 9.232553 0.997488 0.000000 0.000000 0.000000 0.000000 0.000000 0.000000 14.432773 -0.819922 4.552672 10.640493 -9.632298 9.033694 -4.746024 -2.195485 4.228257 -1.908971 -8.984733 -4.435839 2.413704 9.811476 7.928620 -0.913986 -22.261878 -29.126867 -7.435502 -23.314744 -50.748769 9.245080 -40.260367 11.807634 0.000000 0.000000 0.000000 0.000000 0.000000 0.000000 -3.905236 15.396827 25.331928 0.143029 11.641964 34.654845 14.482727 48.374642 -7.975293 0.000000 0.000000 0.000000 0.000000 0.000000 0.000000 
0.000000 0.000000 0.000000 0.000000 0.000000 0.000000 -8.697836 1.908023 2.034594 18.026676 -4.241108 -2.814433 0.000000 0.000000 0.000000 0.000000 0.000000 0.000000 -10.290173 1.393388 -3.531498 16.688951 8.839192 1.056525 0.000000 0.000000 0.000000 0.000000 0.000000 0.000000 13.511157 -0.507831 4.224543 10.057659 -8.982592 8.170966 -4.788821 -1.742514 3.717324 -1.743730 -9.850642 -3.713084 3.342159 8.905822 7.511643 -0.875676 -19.904528 -29.234094 -5.279981 -21.675524 -50.732921 8.790929 -40.969679 12.123365 0.000000 0.000000 0.000000 0.000000 0.000000 0.000000 -3.955775 15.226389 25.287231 -0.051793 13.113098 33.854206 16.239597 49.420575 -8.575747 0.000000 0.000000 0.000000 0.000000 0.000000 0.000000 
0.000000 0.000000 0.000000 0.000000 0.000000 0.000000 -8.137250 1.710744 2.144011 17.272811 -4.610659 -2.544889 0.000000 0.000000 0.000000 0.000000 0.000000 0.000000 -9.499248 1.110631 -3.314752 16.000551 8.500919 1.102895 0.000000 0.000000 0.000000 0.000000 0.000000 0.000000 12.622153 -0.085140 3.896645 9.486190 -8.286608 7.380344 -4.810924 -1.295437 3.300425 -1.511102 -10.661935 -3.164045 4.280365 7.805359 7.169136 -0.928778 -17.748241 -29.096663 -3.780885 -20.269961 -50.340026 8.012278 -40.542207 12.347624 0.000000 0.000000 0.000000 0.000000 0.000000 0.000000 -4.006420 15.058910 25.150280 -0.368899 14.069556 32.822268 17.221404 50.425163 -9.143811 0.000000 0.000000 0.000000 0.000000 0.000000 0.000000 
0.000000 0.000000 0.000000 0.000000 0.000000 0.000000 -7.621472 1.437765 2.172602 16.785584 -5.130084 -2.257319 0.000000 0.000000 0.000000 0.000000 0.000000 0.000000 -8.666680 0.748178 -3.177544 15.470111 8.302068 1.142413 0.000000 0.000000 0.000000 0.000000 0.000000 0.000000 11.838181 0.358773 3.706036 8.946398 -7.714136 6.545794 -4.690389 -0.803715 2.876475 -1.356445 -11.487349 -2.839920 5.311383 6.488019 6.990078 -1.060027 -16.082951 -28.524779 -3.103197 -18.955259 -49.647849 6.728363 -39.278734 12.614782 0.000000 0.000000 0.000000 0.000000 0.000000 0.000000 -4.002540 15.275683 24.589993 -0.953591 14.519067 31.924550 16.979257 51.093876 -9.531633 0.000000 0.000000 0.000000 0.000000 0.000000 0.000000 
0.000000 0.000000 0.000000 0.000000 0.000000 0.000000 -7.193298 1.195710 2.256134 16.470700 -5.871192 -1.983965 0.000000 0.000000 0.000000 0.000000 0.000000 0.000000 -7.868208 0.357642 -2.985383 15.042773 8.177494 1.173814 0.000000 0.000000 0.000000 0.000000 0.000000 0.000000 10.989436 0.782017 3.465200 8.427420 -7.156245 5.729318 -4.584906 -0.296920 2.453532 -1.075902 -12.119003 -2.534404 6.492316 5.224927 6.904878 -1.296347 -14.427884 -27.774646 -2.923067 -17.952044 -48.402604 5.217222 -37.125273 12.512491 0.000000 0.000000 0.000000 0.000000 0.000000 0.000000 -3.969511 15.369630 23.936076 -1.683671 14.833175 30.969234 15.735636 50.909043 -9.122997 0.000000 0.000000 0.000000 0.000000 0.000000 0.000000 
0.000000 0.000000 0.000000 0.000000 0.000000 0.000000 -6.749323 0.990793 2.359681 16.052780 -6.657121 -1.745890 0.000000 0.000000 0.000000 0.000000 0.000000 0.000000 -7.067887 -0.033342 -2.781152 14.620822 8.064912 1.204538 0.000000 0.000000 0.000000 0.000000 0.000000 0.000000 10.116051 1.257007 3.125025 7.733061 -6.587545 5.021942 -4.411595 0.140688 2.156641 -0.562028 -12.707564 -2.337976 7.725404 4.021545 6.999610 -1.606481 -12.933749 -26.860704 -3.156063 -17.252673 -46.858623 2.691698 -34.522887 11.703655 0.000000 0.000000 0.000000 0.000000 0.000000 0.000000 -3.934526 15.285779 23.153989 -2.363656 14.692111 29.854921 13.222907 50.239071 -7.916788 0.000000 0.000000 0.000000 0.000000 0.000000 0.000000 
0.000000 0.000000 0.000000 0.000000 0.000000 0.000000 -6.080257 0.802336 2.463154 15.579860 -7.505461 -1.534770 0.000000 0.000000 0.000000 0.000000 0.000000 0.000000 -6.179487 -0.407374 -2.556982 14.318638 8.052786 1.208144 0.000000 0.000000 0.000000 0.000000 0.000000 0.000000 9.287428 1.703163 2.772566 7.270037 -6.047053 4.367561 -4.268009 0.535490 1.816228 -0.036976 -13.245936 -2.128315 9.031140 2.983898 7.068231 -1.979059 -11.215149 -26.062647 -3.780882 -16.627881 -44.751827 -0.658228 -32.331618 10.646689 0.000000 0.000000 0.000000 0.000000 0.000000 0.000000 -3.951304 14.917444 22.530534 -3.186511 14.627147 28.373337 9.829357 48.995033 -6.008939 0.000000 0.000000 0.000000 0.000000 0.000000 0.000000 
0.000000 0.000000 0.000000 0.000000 0.000000 0.000000 -5.707848 0.610652 2.585234 15.306911 -8.536887 -1.394879 0.000000 0.000000 0.000000 0.000000 0.000000 0.000000 -5.417790 -0.820697 -2.380466 14.041634 7.989328 1.245942 0.000000 0.000000 0.000000 0.000000 0.000000 0.000000 8.565187 2.052086 2.423662 6.631134 -5.665754 3.778075 -4.028464 0.821517 1.534717 0.510183 -13.785243 -2.076945 10.146385 2.062711 7.237059 -2.348211 -9.599665 -25.003857 -4.987863 -16.105716 -42.808243 -4.079777 -30.333280 10.127738 0.000000 0.000000 0.000000 0.000000 0.000000 0.000000 -4.018797 14.361799 21.673219 -4.383653 14.516658 27.087553 6.566783 46.982454 -4.588737 0.000000 0.000000 0.000000 0.000000 0.000000 0.000000 
